<?xml version="1.0" standalone="no"?>
<!DOCTYPE svg PUBLIC "-//W3C//DTD SVG 20010904//EN"
 "http://www.w3.org/TR/2001/REC-SVG-20010904/DTD/svg10.dtd">
<svg version="1.0" xmlns="http://www.w3.org/2000/svg"
 width="300.000000pt" height="240.000000pt" viewBox="0 0 300.000000 240.000000"
 preserveAspectRatio="xMidYMid meet">

<g transform="translate(0.000000,240.000000) scale(0.100000,-0.100000)"
fill="#000000" stroke="none">
<path d="M940 1306 l0 -496 65 0 65 0 0 215 0 214 83 3 82 3 0 55 0 55 -82 3
-83 3 0 165 0 166 253 -4 c273 -4 283 -5 337 -63 22 -24 25 -35 25 -105 0 -70
-3 -81 -25 -105 -36 -39 -80 -55 -155 -55 l-65 0 0 -61 0 -62 90 5 c192 11
290 110 290 292 -1 115 -48 189 -155 238 -49 22 -60 23 -387 26 l-338 3 0
-495z"/>
</g>
</svg>
